<?xml version="1.0" encoding="UTF-8"?>
<svg id="Capa_1" data-name="Capa 1" xmlns="http://www.w3.org/2000/svg" viewBox="0 0 480.5 670.5">
  <path d="M478.5,319.23c.77-.45,1.36-1.13,1.69-1.93.2-.48.31-1,.31-1.54v-77.94c0-1.43-.76-2.75-2-3.46L73.5.53c-.27-.16-.56-.27-.85-.36-.75-.23-1.55-.23-2.3,0-.29.09-.58.2-.85.36,0,0,0,0,0,0L2,39.5c-1.24.71-2,2.04-2,3.46v77.94c0,1.43.76,2.75,2,3.46l65.5,37.82v309.46c0,1.43.76,2.75,2,3.46l67.5,38.97c.62.36,1.31.54,2,.54s1.38-.18,2-.54l67.5-38.97c1.24-.71,2-2.04,2-3.46v-226.9l59.5,34.35v231.52c0,49.5,26.63,95.63,69.5,120.38l67.5,38.97c.62.36,1.31.54,2,.54s1.38-.18,2-.54l67.5-38.97c1.24-.71,2-2.04,2-3.46v-77.94c0-1.43-.76-2.75-2-3.46l-33.75-19.49c-19.58-11.32-31.75-32.39-31.75-55v-114.6l65.5-37.82ZM413,347.81v-64.09l55.5,32.04-55.5,32.04ZM8,45.27L67.5,10.92v68.7L8,113.98V45.27ZM12,120.91l59.5-34.35,19.83,11.45,39.67,22.9-19.83,11.45-39.67,22.9L12,120.91ZM75.5,162.19l59.5-34.35v302.53l-35.58,20.54-23.92,13.81V162.19ZM139,506l-59.5-34.35,59.5-34.35,59.5,34.35-59.5,34.35ZM210.5,235.51v-68.7l123,71.01-59.5,34.35-63.5-36.66ZM409,661.88l-65.5-37.82h0c-40.4-23.33-65.5-66.8-65.5-113.45v-231.52l59.5-34.35v226.9c0,49.5,26.63,95.63,69.5,120.38l61.5,35.51-59.5,34.35ZM440.75,533.57l31.75,18.33v68.7l-61.5-35.51c-40.4-23.33-65.5-66.8-65.5-113.45v-233.83c0-.54-.11-1.06-.31-1.54-.33-.8-.92-1.48-1.69-1.93,0,0,0,0,0,0l-134.99-77.94c-.4-.23-.84-.38-1.28-.46-.46-.08-.94-.09-1.4,0-.46.08-.9.23-1.32.47-.77.45-1.36,1.13-1.69,1.93-.2.48-.31,1-.31,1.54v304.84l-59.5-34.35V120.91c0-.89-.3-1.74-.82-2.43-.02-.03-.05-.06-.07-.08-.09-.11-.17-.21-.27-.31-.12-.12-.24-.23-.37-.33,0,0-.01-.01-.02-.02-.14-.11-.29-.21-.44-.3l-65.5-37.82V10.92l397,229.21v68.7l-61.5-35.51c-1.24-.71-2.76-.71-4,0-1.24.71-2,2.03-2,3.46v194.85c0,25.45,13.7,49.18,35.75,61.92Z"/>
</svg>